<mxfile host="app.diagrams.net" agent="Mozilla/5.0 (Windows NT 10.0; Win64; x64) AppleWebKit/537.36 (KHTML, like Gecko) Chrome/134.0.0.0 Safari/537.36" version="26.0.15">
  <diagram name="PÃ¡gina-1" id="1IU401blc4CkbbXpULVT">
    <mxGraphModel dx="954" dy="1658" grid="1" gridSize="10" guides="1" tooltips="1" connect="1" arrows="1" fold="1" page="1" pageScale="1" pageWidth="850" pageHeight="1100" math="0" shadow="0">
      <root>
        <mxCell id="0" />
        <mxCell id="1" parent="0" />
        <mxCell id="cpoF_YOOKNL7qUSwxbyy-42" value="" style="rounded=0;whiteSpace=wrap;html=1;fillColor=none;strokeColor=#d79b00;strokeWidth=3;" vertex="1" parent="1">
          <mxGeometry x="535" y="100" width="185" height="210" as="geometry" />
        </mxCell>
        <mxCell id="cpoF_YOOKNL7qUSwxbyy-44" value="" style="rounded=0;whiteSpace=wrap;html=1;fillColor=none;strokeColor=#9AC7BF;strokeWidth=3;" vertex="1" parent="1">
          <mxGeometry x="500" y="-122.5" width="290" height="62.5" as="geometry" />
        </mxCell>
        <mxCell id="cpoF_YOOKNL7qUSwxbyy-40" value="" style="rounded=0;whiteSpace=wrap;html=1;fillColor=none;strokeColor=#FF32F1;strokeWidth=5;" vertex="1" parent="1">
          <mxGeometry x="10" y="-250" width="460" height="560" as="geometry" />
        </mxCell>
        <mxCell id="cpoF_YOOKNL7qUSwxbyy-6" style="edgeStyle=orthogonalEdgeStyle;rounded=0;orthogonalLoop=1;jettySize=auto;html=1;exitX=0.5;exitY=1;exitDx=0;exitDy=0;entryX=0.5;entryY=0;entryDx=0;entryDy=0;" edge="1" parent="1" source="cpoF_YOOKNL7qUSwxbyy-1" target="cpoF_YOOKNL7qUSwxbyy-4">
          <mxGeometry relative="1" as="geometry" />
        </mxCell>
        <mxCell id="cpoF_YOOKNL7qUSwxbyy-1" value="STABILITY POOL" style="rounded=1;whiteSpace=wrap;html=1;" vertex="1" parent="1">
          <mxGeometry x="140" y="110" width="120" height="60" as="geometry" />
        </mxCell>
        <mxCell id="cpoF_YOOKNL7qUSwxbyy-5" style="edgeStyle=orthogonalEdgeStyle;rounded=0;orthogonalLoop=1;jettySize=auto;html=1;exitX=0.5;exitY=1;exitDx=0;exitDy=0;entryX=0.5;entryY=0;entryDx=0;entryDy=0;" edge="1" parent="1" source="cpoF_YOOKNL7qUSwxbyy-2" target="cpoF_YOOKNL7qUSwxbyy-3">
          <mxGeometry relative="1" as="geometry" />
        </mxCell>
        <mxCell id="cpoF_YOOKNL7qUSwxbyy-2" value="&lt;b&gt;FLAUNCH &lt;/b&gt;ETH POOL" style="rounded=1;whiteSpace=wrap;html=1;" vertex="1" parent="1">
          <mxGeometry x="570" y="110" width="120" height="60" as="geometry" />
        </mxCell>
        <mxCell id="cpoF_YOOKNL7qUSwxbyy-3" value="TREASURY" style="shape=hexagon;perimeter=hexagonPerimeter2;whiteSpace=wrap;html=1;fixedSize=1;" vertex="1" parent="1">
          <mxGeometry x="570" y="220" width="110" height="70" as="geometry" />
        </mxCell>
        <mxCell id="cpoF_YOOKNL7qUSwxbyy-4" value="TREASURY" style="shape=hexagon;perimeter=hexagonPerimeter2;whiteSpace=wrap;html=1;fixedSize=1;" vertex="1" parent="1">
          <mxGeometry x="140" y="220" width="110" height="70" as="geometry" />
        </mxCell>
        <mxCell id="cpoF_YOOKNL7qUSwxbyy-8" style="edgeStyle=orthogonalEdgeStyle;rounded=0;orthogonalLoop=1;jettySize=auto;html=1;exitX=1;exitY=1;exitDx=0;exitDy=0;exitPerimeter=0;entryX=0.75;entryY=0;entryDx=0;entryDy=0;" edge="1" parent="1" source="cpoF_YOOKNL7qUSwxbyy-7" target="cpoF_YOOKNL7qUSwxbyy-1">
          <mxGeometry relative="1" as="geometry" />
        </mxCell>
        <mxCell id="cpoF_YOOKNL7qUSwxbyy-7" value="Actor" style="shape=umlActor;verticalLabelPosition=bottom;verticalAlign=top;html=1;outlineConnect=0;" vertex="1" parent="1">
          <mxGeometry x="160" y="-10" width="30" height="60" as="geometry" />
        </mxCell>
        <mxCell id="cpoF_YOOKNL7qUSwxbyy-10" style="edgeStyle=orthogonalEdgeStyle;rounded=0;orthogonalLoop=1;jettySize=auto;html=1;exitX=1;exitY=1;exitDx=0;exitDy=0;exitPerimeter=0;entryX=0.75;entryY=0;entryDx=0;entryDy=0;" edge="1" parent="1" source="cpoF_YOOKNL7qUSwxbyy-9" target="cpoF_YOOKNL7qUSwxbyy-2">
          <mxGeometry relative="1" as="geometry" />
        </mxCell>
        <mxCell id="cpoF_YOOKNL7qUSwxbyy-9" value="Actor" style="shape=umlActor;verticalLabelPosition=bottom;verticalAlign=top;html=1;outlineConnect=0;" vertex="1" parent="1">
          <mxGeometry x="780" y="10" width="30" height="60" as="geometry" />
        </mxCell>
        <mxCell id="cpoF_YOOKNL7qUSwxbyy-17" value="Liquidity" style="swimlane;fontStyle=0;childLayout=stackLayout;horizontal=1;startSize=30;horizontalStack=0;resizeParent=1;resizeParentMax=0;resizeLast=0;collapsible=1;marginBottom=0;whiteSpace=wrap;html=1;" vertex="1" parent="1">
          <mxGeometry x="40" y="-160" width="190" height="130" as="geometry" />
        </mxCell>
        <mxCell id="cpoF_YOOKNL7qUSwxbyy-18" value="Deposit can mint 50% of amount_in to wallet" style="text;strokeColor=none;fillColor=none;align=left;verticalAlign=middle;spacingLeft=4;spacingRight=4;overflow=hidden;points=[[0,0.5],[1,0.5]];portConstraint=eastwest;rotatable=0;whiteSpace=wrap;html=1;" vertex="1" parent="cpoF_YOOKNL7qUSwxbyy-17">
          <mxGeometry y="30" width="190" height="30" as="geometry" />
        </mxCell>
        <mxCell id="cpoF_YOOKNL7qUSwxbyy-19" value="Does not deposit $cashmoney" style="text;strokeColor=none;fillColor=none;align=left;verticalAlign=middle;spacingLeft=4;spacingRight=4;overflow=hidden;points=[[0,0.5],[1,0.5]];portConstraint=eastwest;rotatable=0;whiteSpace=wrap;html=1;" vertex="1" parent="cpoF_YOOKNL7qUSwxbyy-17">
          <mxGeometry y="60" width="190" height="30" as="geometry" />
        </mxCell>
        <mxCell id="cpoF_YOOKNL7qUSwxbyy-20" value="LP sustains debt, as a collateral for amount minted $cashmoney&amp;nbsp;" style="text;strokeColor=none;fillColor=none;align=left;verticalAlign=middle;spacingLeft=4;spacingRight=4;overflow=hidden;points=[[0,0.5],[1,0.5]];portConstraint=eastwest;rotatable=0;whiteSpace=wrap;html=1;" vertex="1" parent="cpoF_YOOKNL7qUSwxbyy-17">
          <mxGeometry y="90" width="190" height="40" as="geometry" />
        </mxCell>
        <mxCell id="cpoF_YOOKNL7qUSwxbyy-21" value="Swap" style="swimlane;fontStyle=0;childLayout=stackLayout;horizontal=1;startSize=30;horizontalStack=0;resizeParent=1;resizeParentMax=0;resizeLast=0;collapsible=1;marginBottom=0;whiteSpace=wrap;html=1;" vertex="1" parent="1">
          <mxGeometry x="250" y="-160" width="190" height="130" as="geometry" />
        </mxCell>
        <mxCell id="cpoF_YOOKNL7qUSwxbyy-22" value="Flaunch swap fee revenue" style="text;strokeColor=none;fillColor=none;align=left;verticalAlign=middle;spacingLeft=4;spacingRight=4;overflow=hidden;points=[[0,0.5],[1,0.5]];portConstraint=eastwest;rotatable=0;whiteSpace=wrap;html=1;" vertex="1" parent="cpoF_YOOKNL7qUSwxbyy-21">
          <mxGeometry y="30" width="190" height="30" as="geometry" />
        </mxCell>
        <mxCell id="cpoF_YOOKNL7qUSwxbyy-23" value="Arbitrage with treasury dynamic fee, automated by &lt;b&gt;EigenLayer&lt;/b&gt;" style="text;strokeColor=none;fillColor=none;align=left;verticalAlign=middle;spacingLeft=4;spacingRight=4;overflow=hidden;points=[[0,0.5],[1,0.5]];portConstraint=eastwest;rotatable=0;whiteSpace=wrap;html=1;" vertex="1" parent="cpoF_YOOKNL7qUSwxbyy-21">
          <mxGeometry y="60" width="190" height="30" as="geometry" />
        </mxCell>
        <mxCell id="cpoF_YOOKNL7qUSwxbyy-24" value="Execute Leverage Swap Actions on cashmoney pools" style="text;strokeColor=none;fillColor=none;align=left;verticalAlign=middle;spacingLeft=4;spacingRight=4;overflow=hidden;points=[[0,0.5],[1,0.5]];portConstraint=eastwest;rotatable=0;whiteSpace=wrap;html=1;" vertex="1" parent="cpoF_YOOKNL7qUSwxbyy-21">
          <mxGeometry y="90" width="190" height="40" as="geometry" />
        </mxCell>
        <mxCell id="cpoF_YOOKNL7qUSwxbyy-29" value="" style="endArrow=none;html=1;rounded=0;" edge="1" parent="1">
          <mxGeometry width="50" height="50" relative="1" as="geometry">
            <mxPoint x="480" y="-10" as="sourcePoint" />
            <mxPoint x="480" y="-190" as="targetPoint" />
          </mxGeometry>
        </mxCell>
        <mxCell id="cpoF_YOOKNL7qUSwxbyy-35" value="Swap" style="swimlane;fontStyle=0;childLayout=stackLayout;horizontal=1;startSize=30;horizontalStack=0;resizeParent=1;resizeParentMax=0;resizeLast=0;collapsible=1;marginBottom=0;whiteSpace=wrap;html=1;" vertex="1" parent="1">
          <mxGeometry x="535" y="-150" width="190" height="130" as="geometry" />
        </mxCell>
        <mxCell id="cpoF_YOOKNL7qUSwxbyy-36" value="Uses &lt;b&gt;EigenLayer&lt;/b&gt; to automate management of leverage swaps" style="text;strokeColor=none;fillColor=none;align=left;verticalAlign=middle;spacingLeft=4;spacingRight=4;overflow=hidden;points=[[0,0.5],[1,0.5]];portConstraint=eastwest;rotatable=0;whiteSpace=wrap;html=1;" vertex="1" parent="cpoF_YOOKNL7qUSwxbyy-35">
          <mxGeometry y="30" width="190" height="30" as="geometry" />
        </mxCell>
        <mxCell id="cpoF_YOOKNL7qUSwxbyy-37" value="Uses &lt;b&gt;EigenLayer &lt;/b&gt;to flashmint arbitrages with treasury&amp;nbsp;&lt;b&gt;&amp;nbsp;&lt;/b&gt;&lt;span style=&quot;color: rgba(0, 0, 0, 0); font-family: monospace; font-size: 0px; text-wrap-mode: nowrap;&quot;&gt;%3CmxGraphModel%3E%3Croot%3E%3CmxCell%20id%3D%220%22%2F%3E%3CmxCell%20id%3D%221%22%20parent%3D%220%22%2F%3E%3CmxCell%20id%3D%222%22%20value%3D%22Swap%22%20style%3D%22swimlane%3BfontStyle%3D0%3BchildLayout%3DstackLayout%3Bhorizontal%3D1%3BstartSize%3D30%3BhorizontalStack%3D0%3BresizeParent%3D1%3BresizeParentMax%3D0%3BresizeLast%3D0%3Bcollapsible%3D1%3BmarginBottom%3D0%3BwhiteSpace%3Dwrap%3Bhtml%3D1%3B%22%20vertex%3D%221%22%20parent%3D%221%22%3E%3CmxGeometry%20x%3D%22250%22%20y%3D%22-160%22%20width%3D%22190%22%20height%3D%22130%22%20as%3D%22geometry%22%2F%3E%3C%2FmxCell%3E%3CmxCell%20id%3D%223%22%20value%3D%22Flaunch%20swap%20fee%20revenue%22%20style%3D%22text%3BstrokeColor%3Dnone%3BfillColor%3Dnone%3Balign%3Dleft%3BverticalAlign%3Dmiddle%3BspacingLeft%3D4%3BspacingRight%3D4%3Boverflow%3Dhidden%3Bpoints%3D%5B%5B0%2C0.5%5D%2C%5B1%2C0.5%5D%5D%3BportConstraint%3Deastwest%3Brotatable%3D0%3BwhiteSpace%3Dwrap%3Bhtml%3D1%3B%22%20vertex%3D%221%22%20parent%3D%222%22%3E%3CmxGeometry%20y%3D%2230%22%20width%3D%22190%22%20height%3D%2230%22%20as%3D%22geometry%22%2F%3E%3C%2FmxCell%3E%3CmxCell%20id%3D%224%22%20value%3D%22Arbitrage%20with%20treasury%20dynamic%20fee%22%20style%3D%22text%3BstrokeColor%3Dnone%3BfillColor%3Dnone%3Balign%3Dleft%3BverticalAlign%3Dmiddle%3BspacingLeft%3D4%3BspacingRight%3D4%3Boverflow%3Dhidden%3Bpoints%3D%5B%5B0%2C0.5%5D%2C%5B1%2C0.5%5D%5D%3BportConstraint%3Deastwest%3Brotatable%3D0%3BwhiteSpace%3Dwrap%3Bhtml%3D1%3B%22%20vertex%3D%221%22%20parent%3D%222%22%3E%3CmxGeometry%20y%3D%2260%22%20width%3D%22190%22%20height%3D%2230%22%20as%3D%22geometry%22%2F%3E%3C%2FmxCell%3E%3CmxCell%20id%3D%225%22%20value%3D%22Execute%20Leverage%20Swap%20Actions%20on%20cashmoney%20pools%22%20style%3D%22text%3BstrokeColor%3Dnone%3BfillColor%3Dnone%3Balign%3Dleft%3BverticalAlign%3Dmiddle%3BspacingLeft%3D4%3BspacingRight%3D4%3Boverflow%3Dhidden%3Bpoints%3D%5B%5B0%2C0.5%5D%2C%5B1%2C0.5%5D%5D%3BportConstraint%3Deastwest%3Brotatable%3D0%3BwhiteSpace%3Dwrap%3Bhtml%3D1%3B%22%20vertex%3D%221%22%20parent%3D%222%22%3E%3CmxGeometry%20y%3D%2290%22%20width%3D%22190%22%20height%3D%2240%22%20as%3D%22geometry%22%2F%3E%3C%2FmxCell%3E%3C%2Froot%3E%3C%2FmxGraphModel%arrrr&lt;/span&gt;" style="text;strokeColor=none;fillColor=none;align=left;verticalAlign=middle;spacingLeft=4;spacingRight=4;overflow=hidden;points=[[0,0.5],[1,0.5]];portConstraint=eastwest;rotatable=0;whiteSpace=wrap;html=1;" vertex="1" parent="cpoF_YOOKNL7qUSwxbyy-35">
          <mxGeometry y="60" width="190" height="30" as="geometry" />
        </mxCell>
        <mxCell id="cpoF_YOOKNL7qUSwxbyy-38" value="Executes swaps by Stability Pool" style="text;strokeColor=none;fillColor=none;align=left;verticalAlign=middle;spacingLeft=4;spacingRight=4;overflow=hidden;points=[[0,0.5],[1,0.5]];portConstraint=eastwest;rotatable=0;whiteSpace=wrap;html=1;" vertex="1" parent="cpoF_YOOKNL7qUSwxbyy-35">
          <mxGeometry y="90" width="190" height="40" as="geometry" />
        </mxCell>
        <mxCell id="cpoF_YOOKNL7qUSwxbyy-46" style="edgeStyle=orthogonalEdgeStyle;rounded=0;orthogonalLoop=1;jettySize=auto;html=1;exitX=1;exitY=0.5;exitDx=0;exitDy=0;entryX=0;entryY=0.5;entryDx=0;entryDy=0;" edge="1" parent="1" source="cpoF_YOOKNL7qUSwxbyy-40" target="cpoF_YOOKNL7qUSwxbyy-38">
          <mxGeometry relative="1" as="geometry" />
        </mxCell>
        <mxCell id="cpoF_YOOKNL7qUSwxbyy-41" value="$CASHMONEY HOOK" style="text;html=1;align=center;verticalAlign=middle;whiteSpace=wrap;rounded=0;fontSize=17;" vertex="1" parent="1">
          <mxGeometry x="210" y="-230" width="60" height="30" as="geometry" />
        </mxCell>
        <mxCell id="cpoF_YOOKNL7qUSwxbyy-43" value="Flaunch Hooks" style="text;html=1;align=center;verticalAlign=middle;whiteSpace=wrap;rounded=0;fontSize=15;" vertex="1" parent="1">
          <mxGeometry x="580" y="320" width="75" height="30" as="geometry" />
        </mxCell>
        <mxCell id="cpoF_YOOKNL7qUSwxbyy-45" value="EigenLayer&amp;nbsp;" style="text;html=1;align=center;verticalAlign=middle;whiteSpace=wrap;rounded=0;" vertex="1" parent="1">
          <mxGeometry x="790" y="-110" width="60" height="30" as="geometry" />
        </mxCell>
      </root>
    </mxGraphModel>
  </diagram>
</mxfile>
